<mxfile host="65bd71144e" modified="2021-11-17T09:41:29.899Z" agent="5.0 (Windows NT 10.0; Win64; x64) AppleWebKit/537.36 (KHTML, like Gecko) Code/1.62.2 Chrome/91.0.4472.164 Electron/13.5.2 Safari/537.36" version="13.10.0" etag="lD1fEZ0yfsRfaAv4WRxj" type="embed">
    <diagram id="uvNhjpm0DbxmDeYmPXrt" name="Page-1">
        <mxGraphModel dx="1087" dy="534" grid="0" gridSize="10" guides="1" tooltips="1" connect="1" arrows="1" fold="1" page="0" pageScale="1" pageWidth="1920" pageHeight="1200" math="0" shadow="0">
            <root>
                <mxCell id="0"/>
                <mxCell id="1" parent="0"/>
                <mxCell id="2" value="&lt;span itemprop=&quot;name&quot;&gt;entity&lt;br&gt;&lt;/span&gt;" style="rounded=1;arcSize=10;whiteSpace=wrap;html=1;align=center;fillColor=#FFCE9F;" vertex="1" parent="1">
                    <mxGeometry x="294" y="358" width="510" height="62" as="geometry"/>
                </mxCell>
                <mxCell id="3" value="&lt;span itemprop=&quot;name&quot;&gt;mapper&lt;br&gt;&lt;/span&gt;" style="rounded=1;arcSize=10;whiteSpace=wrap;html=1;align=center;fillColor=#FFCE9F;" vertex="1" parent="1">
                    <mxGeometry x="486" y="231" width="126" height="62" as="geometry"/>
                </mxCell>
                <mxCell id="4" value="&lt;span itemprop=&quot;name&quot;&gt;service&lt;br&gt;&lt;/span&gt;" style="rounded=1;arcSize=10;whiteSpace=wrap;html=1;align=center;fillColor=#FFCE9F;" vertex="1" parent="1">
                    <mxGeometry x="678" y="231" width="126" height="62" as="geometry"/>
                </mxCell>
                <mxCell id="5" value="&lt;span itemprop=&quot;name&quot;&gt;xml&lt;br&gt;&lt;/span&gt;" style="rounded=1;arcSize=10;whiteSpace=wrap;html=1;align=center;fillColor=#FFCE9F;" vertex="1" parent="1">
                    <mxGeometry x="294" y="231" width="126" height="62" as="geometry"/>
                </mxCell>
                <mxCell id="6" value="&lt;span itemprop=&quot;name&quot;&gt;controller&lt;br&gt;&lt;/span&gt;" style="rounded=1;arcSize=10;whiteSpace=wrap;html=1;align=center;fillColor=#FFCE9F;" vertex="1" parent="1">
                    <mxGeometry x="294" y="103" width="510" height="62" as="geometry"/>
                </mxCell>
                <mxCell id="7" value="Use" style="endArrow=open;endSize=12;dashed=1;html=1;exitX=0.5;exitY=1;exitDx=0;exitDy=0;edgeStyle=orthogonalEdgeStyle;entryX=0.25;entryY=0;entryDx=0;entryDy=0;" edge="1" parent="1" source="5" target="2">
                    <mxGeometry width="160" relative="1" as="geometry">
                        <mxPoint x="130" y="339" as="sourcePoint"/>
                        <mxPoint x="290" y="339" as="targetPoint"/>
                    </mxGeometry>
                </mxCell>
                <mxCell id="8" value="Use" style="endArrow=open;endSize=12;dashed=1;html=1;exitX=0.5;exitY=1;exitDx=0;exitDy=0;edgeStyle=orthogonalEdgeStyle;entryX=0.5;entryY=0;entryDx=0;entryDy=0;" edge="1" parent="1" source="3" target="2">
                    <mxGeometry width="160" relative="1" as="geometry">
                        <mxPoint x="367" y="303" as="sourcePoint"/>
                        <mxPoint x="431.5000000000002" y="368" as="targetPoint"/>
                    </mxGeometry>
                </mxCell>
                <mxCell id="9" value="Use" style="endArrow=open;endSize=12;dashed=1;html=1;exitX=0.5;exitY=1;exitDx=0;exitDy=0;edgeStyle=orthogonalEdgeStyle;entryX=0.75;entryY=0;entryDx=0;entryDy=0;" edge="1" parent="1" source="4" target="2">
                    <mxGeometry width="160" relative="1" as="geometry">
                        <mxPoint x="559" y="303" as="sourcePoint"/>
                        <mxPoint x="559" y="368" as="targetPoint"/>
                    </mxGeometry>
                </mxCell>
                <mxCell id="10" value="" style="endArrow=open;html=1;endSize=12;startArrow=diamondThin;startSize=14;startFill=1;edgeStyle=orthogonalEdgeStyle;align=left;verticalAlign=bottom;exitX=0;exitY=0.5;exitDx=0;exitDy=0;entryX=1;entryY=0.5;entryDx=0;entryDy=0;" edge="1" parent="1" source="4" target="3">
                    <mxGeometry x="-1" y="3" relative="1" as="geometry">
                        <mxPoint x="78" y="215" as="sourcePoint"/>
                        <mxPoint x="238" y="215" as="targetPoint"/>
                    </mxGeometry>
                </mxCell>
                <mxCell id="11" value="" style="endArrow=open;html=1;endSize=12;startArrow=diamondThin;startSize=14;startFill=1;edgeStyle=orthogonalEdgeStyle;align=left;verticalAlign=bottom;exitX=0.5;exitY=1;exitDx=0;exitDy=0;entryX=0.5;entryY=0;entryDx=0;entryDy=0;" edge="1" parent="1" source="6" target="4">
                    <mxGeometry x="-1" y="3" relative="1" as="geometry">
                        <mxPoint x="688" y="272" as="sourcePoint"/>
                        <mxPoint x="622" y="272" as="targetPoint"/>
                    </mxGeometry>
                </mxCell>
                <mxCell id="12" value="" style="endArrow=block;startArrow=block;endFill=1;startFill=1;html=1;entryX=0;entryY=0.5;entryDx=0;entryDy=0;exitX=1;exitY=0.5;exitDx=0;exitDy=0;edgeStyle=orthogonalEdgeStyle;" edge="1" parent="1" source="5" target="3">
                    <mxGeometry width="160" relative="1" as="geometry">
                        <mxPoint x="96" y="328" as="sourcePoint"/>
                        <mxPoint x="256" y="328" as="targetPoint"/>
                    </mxGeometry>
                </mxCell>
            </root>
        </mxGraphModel>
    </diagram>
</mxfile>